<svg version="1.1" id="Layer_1" xmlns="http://www.w3.org/2000/svg" xmlns:xlink="http://www.w3.org/1999/xlink" x="0px" y="0px"
	 width="100%" viewBox="0 0 173 142" enable-background="new 0 0 173 142" xml:space="preserve">
<path fill="#000000" opacity="1.000000" stroke="none" 
	d="
M129.000000,143.000000 
	C86.000008,143.000000 43.500011,143.000000 1.000011,143.000000 
	C1.000008,95.666679 1.000008,48.333355 1.000004,1.000024 
	C58.666653,1.000016 116.333305,1.000016 173.999969,1.000008 
	C173.999969,48.333309 173.999969,95.666618 173.999985,142.999969 
	C159.166672,143.000000 144.333328,143.000000 129.000000,143.000000 
M61.459877,17.042480 
	C59.703869,16.704912 57.881062,15.876795 56.202160,16.105431 
	C38.846043,18.469004 31.426889,30.128349 34.692646,45.930653 
	C37.040001,57.288975 48.064381,63.849453 60.614494,62.034943 
	C72.873535,60.262512 78.793594,51.629204 79.799133,42.366844 
	C81.352303,28.060118 71.428978,18.572973 61.459877,17.042480 
M48.913445,124.822853 
	C58.271729,127.439697 67.286758,126.218529 73.939804,119.210052 
	C80.543007,112.254066 81.463684,103.514488 78.206451,94.095131 
	C75.083755,85.064789 67.331604,82.320946 59.848507,80.242088 
	C51.697044,77.977554 40.716370,83.909782 36.831532,91.548912 
	C30.835947,103.338608 34.024826,119.126656 48.913445,124.822853 
M132.999802,82.499603 
	C135.353821,80.144020 137.538666,77.581436 140.104095,75.484497 
	C143.419205,72.774788 143.698013,70.729988 140.301971,67.636063 
	C134.473236,62.325832 129.088470,56.527290 123.540215,50.911140 
	C122.576294,49.935429 121.725075,48.848377 119.850311,46.698898 
	C119.850311,54.155155 119.850311,59.924797 119.850311,65.989227 
	C116.562065,65.989227 113.597610,65.987221 110.633148,65.989601 
	C101.577988,65.996880 101.573883,65.997803 102.153183,74.900742 
	C102.170647,75.169205 102.479706,75.418686 102.662537,75.679771 
	C102.974617,75.749374 103.286072,75.876396 103.598862,75.879761 
	C106.928947,75.915581 110.259224,75.944016 113.589493,75.950760 
	C120.016975,75.963768 120.027328,75.957367 120.067085,82.602753 
	C120.089470,86.343605 120.071114,90.084694 120.071114,95.285019 
	C124.854065,90.557213 128.676910,86.778450 132.999802,82.499603 
z"/>
<path fill="#38B880" opacity="1.000000" stroke="none" 
	d="
M61.879436,17.045906 
	C71.428978,18.572973 81.352303,28.060118 79.799133,42.366844 
	C78.793594,51.629204 72.873535,60.262512 60.614494,62.034943 
	C48.064381,63.849453 37.040001,57.288975 34.692646,45.930653 
	C31.426889,30.128349 38.846043,18.469004 56.202160,16.105431 
	C57.881062,15.876795 59.703869,16.704912 61.879436,17.045906 
z"/>
<path fill="#655CC0" opacity="1.000000" stroke="none" 
	d="
M48.504654,124.810501 
	C34.024826,119.126656 30.835947,103.338608 36.831532,91.548912 
	C40.716370,83.909782 51.697044,77.977554 59.848507,80.242088 
	C67.331604,82.320946 75.083755,85.064789 78.206451,94.095131 
	C81.463684,103.514488 80.543007,112.254066 73.939804,119.210052 
	C67.286758,126.218529 58.271729,127.439697 48.504654,124.810501 
z"/>
<path fill="#EAEAF9" opacity="1.000000" stroke="none" 
	d="
M132.749786,82.749641 
	C128.676910,86.778450 124.854065,90.557213 120.071114,95.285019 
	C120.071114,90.084694 120.089470,86.343605 120.067085,82.602753 
	C120.027328,75.957367 120.016975,75.963768 113.589493,75.950760 
	C110.259224,75.944016 106.928947,75.915581 103.598862,75.879761 
	C103.286072,75.876396 102.974617,75.749374 102.657669,75.678391 
	C102.479706,75.418686 102.170647,75.169205 102.153183,74.900742 
	C101.573883,65.997803 101.577988,65.996880 110.633148,65.989601 
	C113.597610,65.987221 116.562065,65.989227 119.850311,65.989227 
	C119.850311,59.924797 119.850311,54.155155 119.850311,46.698898 
	C121.725075,48.848377 122.576294,49.935429 123.540215,50.911140 
	C129.088470,56.527290 134.473236,62.325832 140.301971,67.636063 
	C143.698013,70.729988 143.419205,72.774788 140.104095,75.484497 
	C137.538666,77.581436 135.353821,80.144020 132.749786,82.749641 
z"/>
</svg>